<?xml version="1.0" encoding="UTF-8"?> <svg xmlns="http://www.w3.org/2000/svg" id="Layer_1" viewBox="0 0 627.4 78.98"><defs><style>.cls-1{fill:#231f20;}</style></defs><g><path class="cls-1" d="M446.07,76.51c-1.12,.35-2.26,.65-3.4,.88-8.49,.88-16.97,.43-25.46-.12h-32.79c-.3,.04-.59,.07-.89,.12,0-.04,0-.08,0-.12h-.04s.04-.29,.04-.29l.03-.23c.5-11.71,2.43-23,4.56-34.27L393.43,.55h2.57c9.39-.5,18.5,1.72,27.67,2.1h15.25c6.01,0,10.81,1.84,13.67,4.95,1.55,1.37,2.58,3.27,2.89,5.35,0,7.82,2.69,17.5-3.09,24.59,2.43,2.08,3.83,5.18,3.81,8.45,0,.17,.1,9.46,.1,18.74,0,5.79-3.93,10.1-10.23,11.77Zm-36.93,.25c-6.73-.49-13.49-.49-20.22,0h20.22Zm-19.36-42.97c2.07-10.11,3.59-22.44,4.55-32.73h-.48s-4.07,32.73-4.07,32.73Zm4.59,30.3l1.73,.12,2.77-19.42h16.45c-5.67-1.01-11.06-2.17-17-2.17-.84,7.24-2.15,14.42-3.94,21.48Zm20.9,1.45h24.66c.5,0,.99-.02,1.49-.07,.96-2.5,1.61-5.11,1.94-7.78v-5.2c-.4-2.51-1.5-4.38-3.65-4.75-5.91-2.05-12.81-2.05-18.72-2.05-.89-.12-1.76-.25-2.63-.38h-19.06s-2.7,18.95-2.7,18.95l18.68,1.29Zm12.83-51.15h-22.17c-1.04,5.66-2.78,11.32-3.69,16.98,4.28,.68,8.68,1.48,13.11,2.2h23.55c2.23,0,3.73-2.32,3.73-5.78V15.62c-.02-.15-.09-.29-.21-.39-.57-.16-1.15-.23-1.74-.22-4.29,0-8.45-.27-12.58-.62Zm-5.84-.51c-5.28-.48-10.57-.92-16.07-.92-.05,.31-.11,.61-.16,.92h16.23Zm20.85,1.62s.02,.08,.02,.12v12.17c0,3.7-1.74,6.29-4.22,6.29h-20.3c7.76,1.17,15.58,1.98,23.06,1.38,1.23-1.4,1.93-3.22,1.97-5.11-.86-4.45,3.5-12.76-.53-14.85Zm-20.45,50.55l16.05,1.11h1.97c.18-.37,.35-.75,.52-1.16-.49,.04-.95,.05-1.28,.05h-17.26Zm11.13-62.88c3.26,.19,6.53,.38,9.85,.59,1.51,.3,2.99,.72,4.44,1.25-2.9-1.27-6.03-1.9-9.18-1.83h-5.11Zm18.27,34.77c-.17,.2-.35,.4-.54,.59,.99,3.07,4.93,5.11,3.94,9.2,0,3.08,.18,5.96,.31,8.82-.03-5.92-.08-10.49-.08-10.55,.04-3.12-1.3-6.09-3.63-8.06Zm3.74,26.8v-.1c-.04,.65-.09,1.3-.16,1.97,.1-.62,.16-1.24,.16-1.86Z"></path><path class="cls-1" d="M532.52,76.9s-1.66,.08-1.64,.12l-13.58-.21c-.25,0-.46-.24-.52-.57-.91-4.62-2.64-7.63-3.55-12.26-.06-.31-.25-.55-.49-.57-5.02-.52-10.04-1.2-15.06-1.84-.01,0-.03,0-.04,0l-18.77-.29c-.16,0-.31,.09-.42,.25l-9.42,14.16c-.11,.16-.26,.26-.42,.25l-12.45-.19c-.09,.04-.18,.07-.26,.11,.01-.04,.03-.08,.04-.11h-.16s.21-.38,.21-.38l.37-.67c5.76-14.91,13.69-28,22.65-41.13,.01-.02,.03-.04,.04-.06l17.32-31.45c.11-.2,.28-.31,.46-.31l16.2,.25,.04,.19,.22,.92c.19,0,.38,0,.57,0,.24,0,.44,.22,.52,.53,2.63,10.9,5.25,21.3,6.78,32.28,0,.03,0,.06,.02,.09l11.5,40.9h-.15Zm-39.71-15.92c-5.15-.6-10.3-1.07-15.46-1.15-.11,0-.24,0-.31,.11-3,5.02-4.58,9.2-8.44,14.4,0,0-7.35,.05-11.01,.92l10.74,.17c.16,0,.31-.09,.42-.25l9.42-14.16c.11-.16,.26-.26,.42-.25l14.21,.22Zm-10.95-31.57c3.3-4.73,2.86-5.34,6.33-10.22,2.95-3.89,4.09-8.74,6.01-12.72,.02-.03,.03-.06,.05-.09l2.56-4.12-14.96,27.15Zm7.71,9.48c-2.38,3.25-4.77,6.51-7.17,9.76,.49,0,.98,.03,1.48,.05,.18,0,.36-.11,.47-.31l5.22-9.5Zm-4.86,9.86c2.58,.17,5.22,.55,7.88,.99,.02,0,.04,0,.06,0l16.89,.26c.34,0,.61-.41,.58-.88-.24-3.19-.54-6.38-.88-9.56,0-.04-.01-.09-.02-.13l-4.66-20.25c-.13-.57-.64-.72-.94-.28-3.71,5.58-7.64,11.15-11.67,16.72-.02,.03-.04,.05-.05,.08l-7.17,13.04h0Zm11.16,1.56c4.55,.94,9.17,1.55,13.81,1.8,.34,.02,.63-.4,.59-.88,0,0,0-.01,0-.02-.03-.39-.26-.69-.54-.69l-13.86-.21Zm16.75-47.81l-13.11-.2c4.21,1.36,9.01,.88,13.26,.82l-.15-.62Zm-5.5,20.5c-.29-2.08-.59-4.16-.89-6.24-.09-.62-.65-.83-.96-.36-.14,.21-.27,.41-.41,.62s-.19,.51-.12,.78l1.29,5.62c.21,.93,1.22,.55,1.09-.41Zm14.6,17.45c.31,2.88,1.36,5.44,1.48,8.44-.02,1.01,.68,3.12,1.1,4.45,0,.03,.02,.06,.02,.09,1.71,7.63,2.57,15.25,5.8,22.08l-8.41-35.07Z"></path><path class="cls-1" d="M575,77.43h-36.62c-.46,.04-.93,.07-1.4,.12,0-.04-.01-.08-.02-.12h-.79v-5.31c-.71-7.34-.71-14.71,0-22.05V2.82h16.67v.08h.77c2.31,11.23,.81,22.47-.77,33.7v27.8c2.96,.2,5.96,.39,8.99,.57h37.66v11.7c.09,.3,.17,.59,.28,.89-8.25,.31-16.53,.27-24.78-.12Zm-38.13-35.07c1.01-10.17,2.15-20.32,1.51-30.26,0-2.92-1.26-5.85-1.38-8.77h-.13V42.36Zm22.68,34.57c-4.56-.1-9.1-.13-13.6,0h13.6Zm-7.41-35.3c-1.21,7.51-1.65,15.07-1.33,22.63l1.32,.09v-22.72Zm18.76,23.85c9.27,.48,18.6,.83,27.47,.83-.08,2.48,.06,4.95,.42,7.42v-8.25h-27.89Z"></path><path class="cls-1" d="M626.43,78.22c.04,.13,.08,.26,.13,.39h-16.64s-.02-.08-.03-.12h-.13v-.55c-2.4-9.91-2.82-20.02-1.24-30.02,.43-2.16,.35-11.94,.75-14.14l.49-29.91h16.67v.08h.13c.09,19.32,1.93,24.56-.13,36.76v37.51Zm-15.97-40.89c1.69-10.42,2.52-21.1,0-31.32v31.32Zm15.27,7.48c-.56,3.05,.33,6.13-.43,9.25-1.08,7.35-1.96,14.78,.43,21.97v-31.22Z"></path></g><path class="cls-1" d="M359.79,78.98c-.21,0-.43-.02-.64-.05-9.51-1.64-42.46-3.08-49.13-1.82-.29,.05-.6-.02-.82-.21s-.36-.47-.36-.77l.05-12.01c0-.82,.33-1.59,.93-2.16,.6-.57,1.38-.87,2.2-.83l48.21,1.95c.85,.03,1.61,.35,2.07,.86,.33,.36,.49,.8,.47,1.25l-.37,6.89c-.03,1.59-.01,3.23,.06,4.82,.02,.53-.2,1.03-.64,1.41-.51,.45-1.25,.69-2.03,.69Zm-39.6-4.36c12.73,0,32.11,1.09,39.3,2.33,.45,.08,.82-.04,.96-.13-.07-1.59-.08-3.22-.05-4.84l.36-6.77c-.1-.06-.31-.15-.62-.16l-48.21-1.95c-.28-.01-.54,.09-.74,.28-.2,.19-.31,.45-.31,.73h0l-.04,10.86c2.11-.24,5.41-.34,9.35-.34Zm-10.31-10.52h0Z"></path><path class="cls-1" d="M103.41,13.74c-13.79,1.01-26.2,0-39.98,0-1.31,6.71-2.31,13.43-3.3,20.14v41.22h-2.26s.03,.08,.05,.11c-2.13,.3-4.32,.26-6.43-.11h-9.31v-1.1c-.74,0-1.47,.08-2.18,.2v-24.19c.49-4.26,1.32-8.65,2.18-13.08V13.13H.04V1.73s-.02-.06-.04-.09H.04v-.07H3.63c5.99-.12,11.94-.1,17.86,0H102.26v6.67c.17,1.86,.55,3.7,1.15,5.5Zm-60.55-1.11v20.81c1.54-6.85,2.42-13.77,2.64-20.71-15.17-2.02-28.95-1.01-44.12-1.01,.09-2.65-.13-5.3-.65-7.92V12.63H42.86Zm-2.19-10.56c18.49,.59,36.9,1.25,55.68,0H40.67Zm7.57,72.53c-1.76-.32-3.56-.51-5.38-.59v.59h5.38Zm11.2-36.05c-.86,5.84-1.77,11.68-2.91,17.52,0,5.84-1.28,12.63,1.13,18.53h1.78V38.55Z"></path><path class="cls-1" d="M199.36,7.05c-1.4,12.81-3.8,25.54-7.2,38.15l-5.65,29.91h-1.88s-.02,.08-.03,.11h-17.92c0-11.09,5.52-21.17,8.27-31.25-7.7-.06-15.38-.5-22.99-1.32h-28.61l-6.89,32.45h-16.65c-.23,.04-.45,.07-.69,.11,0-.04,0-.08,0-.11h-.63l.05-.29,1.02-5.39c1.39-12.5,3.73-24.94,7.03-37.25L112.38,1.57h17.96v.07s1.87,0,1.87,0c0,10.08-5.52,19.15-6.89,28.22,7.39,.06,14.76,.47,22.07,1.24h29.38l5.52-29.53h13.15c1.26-.17,2.54-.17,3.8,0h1.16l-.05,.29-.98,5.2Zm-52.37,35.1c-8.02-.83-16.08-1.74-24.43-2.21-2.76,11.09-6.89,22.17-8.27,34.27-3.63-.07-7.27,.06-10.88,.39h12.46l6.89-32.45h24.23Zm-37.75-20.23c1.72-6.64,3.44-13.25,4.95-19.86h-1.21l-3.75,19.86Zm43.21,9.67c8.31,.86,16.63,1.81,25.27,2.3,2.76-10.08,5.52-21.17,6.89-31.25,2.9,.53,5.41-.05,7.95-.58h-9.66l-5.51,29.53h-24.93Zm37.09,23.8c-1.66,6.41-3.32,12.81-4.79,19.2h1.16l3.62-19.2Z"></path><path class="cls-1" d="M226.46,74.84c.04,.13,.08,.25,.12,.38h-17.93s-.02-.08-.03-.11h-.13v-.54c-2.37-9.76-2.78-19.73-1.22-29.58,.42-2.13,.83-4.28,1.22-6.45V1.57h17.96v.07h.12c1.95,12.04,1.91,24.2-.12,36.23v36.97Zm-17.27-40.3c1.67-10.27,2.48-20.8,0-30.87v30.87Zm16.58,7.38c-.56,3.01-1.21,6.05-1.95,9.12-1.06,7.24-.4,14.57,1.95,21.65v-30.77Z"></path><path class="cls-1" d="M268.78,17.1v-4.22c0-.48-2.49-.75-7.38-.81,.95,1.82,1.35,3.76,1.17,5.7,2.6,5.32,5.79,10.36,8.98,15.38,.15,.15,.28,.3,.43,.45,9.2,9.44,14.48,19.64,14.48,28,.19,4.71-2.99,9.16-8.38,11.74-.54,.32-1.11,.61-1.71,.87-.81,.25-1.62,.47-2.43,.67-3.18,.86-6.55,1.29-9.94,1.27-8.47,0-15.19-1.91-19.01-5.25-4.07-3.56-5.71-8.27-4.46-12.81,5.37,0,10.74-.95,16.12,.87h2.99v4.84c0,.14,.33,.35,1.24,.53,1.05,.17,2.12,.25,3.19,.24,.88,0,1.76-.05,2.62-.15,.02-.09,.04-.18,.04-.28-1.08-8.67-7.2-16.1-12.47-24.23-8.14-9.03-12.44-18.04-12.44-26.19-.08-3.56,2.04-6.96,5.76-9.25,.38-.29,.79-.56,1.22-.81,11.03-5.04,23.44-5.04,34.47,1.01,4.64,3.45,6.7,8.34,5.52,13.1-5.28,.11-10.56-.12-15.78-.67h-4.21Zm-26.28-3.38c0,7.1,3.3,14.87,9.62,22.76-.69-1.17-1.35-2.36-1.95-3.58-1.38-4.03-4.14-8.06-5.52-12.09-1.01-4.43-2-9.38,.22-13.31-1.59,1.87-2.41,4.03-2.38,6.22h0Zm18.19,51.09c-1.16-.22-1.76-.56-1.76-1.01v-4.33h-2c-1.1,2.82,.3,4.72,4.27,5.69,1.13,0,4.09,.67,5.14-.18-.76,.07-1.52,.11-2.28,.11-1.13,.01-2.26-.07-3.36-.26h0Zm8.78-51.93v3.71h1.45c1.07-2.11,.17-3.31-1.55-3.98,.06,.08,.09,.18,.09,.27Zm16.3,48.73c0-7.67-4.52-16.94-12.48-25.72,4.65,7.39,9.06,14.83,11.35,23.21,.9,3.57,.14,7.25-2.16,10.46,2.2-2.33,3.35-5.11,3.29-7.95h0Z"></path><path class="cls-1" d="M326.47,50.17h-10.98c-.32,0-.61-.15-.79-.39-.18-.18-.3-.42-.3-.68v-.21c-1.46-6.08-1.71-12.26-.74-18.39,.26-1.31,.5-2.59,.74-3.89V4.05c0-.55,.45-1,1-1h11c.3,0,.56,.13,.75,.33,.16,.15,.28,.34,.32,.55,1.2,7.45,1.18,14.99-.06,22.44l.02,22.47c.1,.31,.06,.64-.13,.91-.19,.26-.49,.42-.81,.42Zm-10.19-2h8.86c-.05-.07-.09-.15-.12-.24-1.49-4.5-1.91-9.12-1.23-13.72,.47-1.95,.86-3.81,1.2-5.62,.05-.27,.2-.49,.41-.63v-1.66c0-.06,0-.11,.01-.17,1.18-6.99,1.24-14.07,.2-21.07h-8.83s0,.03,.01,.05c1.68,6.83,.89,13.9,.02,19.31-.04,.27-.2,.51-.41,.66v1.63c0,.06,0,.12-.02,.18-.24,1.33-.49,2.66-.75,3.97-.91,5.75-.69,11.59,.65,17.33Z"></path><path class="cls-1" d="M351.72,50.74c-5.42,0-9.89-1.21-12.47-3.46-2.76-2.42-3.9-5.73-3.04-8.87,.12-.43,.51-.74,.96-.74,.83,0,1.65-.04,2.48-.07,2.45-.11,4.98-.22,7.56,.61h1.67c.55,0,1,.45,1,1v2.31c.54,.09,1.12,.13,1.7,.12,.17,0,.34,0,.51,0-.73-3.75-3.06-7.18-5.51-10.81-.6-.88-1.2-1.77-1.79-2.68-5.12-5.7-7.82-11.45-7.82-16.65-.05-2.53,1.41-4.91,4.01-6.52,.19-.15,.47-.33,.77-.51,7.41-3.39,15.23-3.16,22.1,.6,.04,.02,.08,.05,.12,.07,3.17,2.36,4.57,5.75,3.75,9.07-.11,.44-.5,.75-.95,.76-3.24,.07-6.52-.07-9.74-.41h-2.53c-.55,0-1-.45-1-1v-1.9c-.36-.05-.97-.1-2.04-.14,.21,.74,.29,1.5,.25,2.26,1.55,3.13,3.44,6.11,5.27,9,.03,.03,.06,.07,.1,.1l.1,.1c5.81,5.96,9.15,12.46,9.15,17.84,.13,3.23-2.06,6.35-5.7,8.09-.29,.17-.68,.37-1.07,.54-.04,.02-.07,.03-.11,.04-.52,.16-1.03,.3-1.55,.43-1.97,.53-4.05,.81-6.16,.81Zm-13.73-11.08c-.32,2.18,.59,4.37,2.58,6.11,2.21,1.94,6.2,2.97,11.15,2.97,1.95,0,3.85-.25,5.67-.74,.48-.12,.94-.24,1.4-.38,.31-.14,.61-.29,.9-.46,.84-.4,1.57-.87,2.2-1.39-.01-.22,.05-.45,.19-.65,1.25-1.74,1.65-3.67,1.17-5.58-1.38-5.03-4.13-9.64-6.83-13.93-.13-.21-.18-.45-.14-.68-.17-.18-.35-.37-.53-.55l-.25-.27c-.05-.05-.1-.11-.13-.17-1.93-3.03-3.92-6.17-5.55-9.52-.08-.16-.11-.35-.1-.53,.09-1-.11-1.99-.61-2.94-.16-.31-.15-.69,.03-.99,.18-.3,.54-.48,.86-.48,2.35,.03,3.78,.1,4.59,.37,.21-.06,.43-.05,.64,.03,.88,.35,1.46,.87,1.72,1.55,.13,.35,.17,.73,.12,1.12h0s.07,0,.1,0c2.88,.31,5.82,.45,8.72,.42,.25-2.25-.86-4.52-3.08-6.19-6.29-3.42-13.44-3.62-20.15-.55-.14,.09-.36,.23-.56,.38-.47,.29-.89,.61-1.26,.94,.02,.2-.02,.42-.12,.61-1.13,1.99-.67,4.63-.04,7.38,.4,1.15,.99,2.3,1.62,3.52,.63,1.22,1.28,2.49,1.72,3.77,.32,.63,.68,1.29,1.14,2.07,.13,.22,.17,.47,.12,.71,.34,.41,.7,.82,1.07,1.23,.04,.04,.07,.08,.1,.13,.59,.91,1.2,1.82,1.81,2.71,2.78,4.11,5.41,7.99,5.98,12.55,0,.04,0,.09,0,.13,0,.14-.02,.27-.05,.41-.04,.17-.13,.32-.24,.44-.06,.16-.16,.31-.31,.43-.8,.65-2.1,.51-3.15,.39-.38-.04-.64-.03-.87-.08-1.69-.41-2.77-1.09-3.28-2.08-.3-.58-.39-1.23-.26-1.93-2.05-.55-4.13-.45-6.32-.35-.58,.03-1.17,.05-1.76,.07Z"></path></svg> 