<?xml version="1.0" encoding="UTF-8"?> <svg xmlns="http://www.w3.org/2000/svg" xmlns:xlink="http://www.w3.org/1999/xlink" width="300" zoomAndPan="magnify" viewBox="0 0 224.87999 93.749996" height="125" preserveAspectRatio="xMidYMid meet" version="1.0"><defs><g></g></defs><g fill="#000000" fill-opacity="1"><g transform="translate(15.486416, 71.956503)"><g><path d="M 22.671875 -41.796875 C 23.460938 -42.910156 24.21875 -43.550781 24.9375 -43.71875 C 25.664062 -43.894531 26.144531 -43.394531 26.375 -42.21875 C 26.613281 -41.039062 26.585938 -39.113281 26.296875 -36.4375 C 25.378906 -28.082031 25 -20.269531 25.15625 -13 C 25.320312 -5.738281 25.910156 2.320312 26.921875 11.1875 C 26.953125 11.675781 26.800781 12.03125 26.46875 12.25 C 26.132812 12.476562 25.78125 12.546875 25.40625 12.453125 C 25.039062 12.359375 24.828125 12.128906 24.765625 11.765625 C 23.835938 3.222656 23.269531 -3.894531 23.0625 -9.59375 C 22.851562 -15.300781 22.867188 -20.191406 23.109375 -24.265625 C 23.359375 -28.335938 23.675781 -32.179688 24.0625 -35.796875 C 24.113281 -36.179688 24.15625 -36.582031 24.1875 -37 C 24.34375 -38.707031 24.425781 -39.785156 24.4375 -40.234375 C 24.445312 -40.691406 24.441406 -40.914062 24.421875 -40.90625 C 24.410156 -40.894531 24.191406 -40.539062 23.765625 -39.84375 C 22.023438 -36.988281 20.46875 -33.46875 19.09375 -29.28125 C 17.71875 -25.09375 16.570312 -20.820312 15.65625 -16.46875 C 14.75 -12.113281 14.125 -8.269531 13.78125 -4.9375 C 13.707031 -4.476562 13.453125 -4.148438 13.015625 -3.953125 C 12.585938 -3.765625 12.195312 -3.832031 11.84375 -4.15625 C 11 -5.070312 10.128906 -6.832031 9.234375 -9.4375 C 8.347656 -12.039062 7.441406 -14.945312 6.515625 -18.15625 C 5.472656 -21.84375 4.425781 -25.164062 3.375 -28.125 C 3.332031 -28.195312 3.300781 -28.273438 3.28125 -28.359375 C 2.8125 -29.722656 2.5625 -30.40625 2.53125 -30.40625 C 2.507812 -30.40625 2.378906 -29.535156 2.140625 -27.796875 C 1.679688 -24.390625 1.515625 -19.503906 1.640625 -13.140625 C 1.765625 -6.773438 2.316406 0.0390625 3.296875 7.3125 C 3.328125 7.664062 3.207031 7.953125 2.9375 8.171875 C 2.664062 8.390625 2.363281 8.472656 2.03125 8.421875 C 1.707031 8.367188 1.503906 8.164062 1.421875 7.8125 C 0.554688 2.625 -0.00390625 -3.671875 -0.265625 -11.078125 C -0.523438 -18.492188 -0.3125 -24.40625 0.375 -28.8125 C 0.90625 -31.789062 1.648438 -33.1875 2.609375 -33 C 3.566406 -32.8125 4.535156 -31.382812 5.515625 -28.71875 C 6.609375 -25.632812 7.679688 -22.242188 8.734375 -18.546875 C 9.390625 -16.304688 10.03125 -14.191406 10.65625 -12.203125 C 11.28125 -10.222656 11.734375 -8.945312 12.015625 -8.375 C 12.296875 -10.613281 12.945312 -13.960938 13.96875 -18.421875 C 14.988281 -22.878906 16.242188 -27.25 17.734375 -31.53125 C 19.234375 -35.820312 20.878906 -39.242188 22.671875 -41.796875 Z M 22.671875 -41.796875 "></path></g></g><g transform="translate(50.374237, 62.164123)"><g><path d="M 20.421875 -14.5 C 20.660156 -14.820312 20.957031 -14.960938 21.3125 -14.921875 C 21.675781 -14.878906 21.929688 -14.742188 22.078125 -14.515625 C 22.222656 -14.296875 22.207031 -14.019531 22.03125 -13.6875 C 20.96875 -12.070312 19.5625 -10.207031 17.8125 -8.09375 C 16.0625 -5.988281 14.425781 -4.273438 12.90625 -2.953125 C 12.25 -2.335938 11.476562 -1.804688 10.59375 -1.359375 C 9.707031 -0.921875 8.804688 -0.90625 7.890625 -1.3125 C 6.941406 -1.851562 6.34375 -2.769531 6.09375 -4.0625 C 5.84375 -5.363281 5.726562 -6.179688 5.75 -6.515625 C 4.519531 -3.992188 3.488281 -2.179688 2.65625 -1.078125 C 1.820312 0.015625 0.929688 0.609375 -0.015625 0.703125 C -1.066406 0.660156 -1.734375 0.0195312 -2.015625 -1.21875 C -2.296875 -2.46875 -2.398438 -3.832031 -2.328125 -5.3125 C -2.265625 -6.789062 -2.148438 -7.941406 -1.984375 -8.765625 C -2.148438 -8.972656 -2.195312 -9.28125 -2.125 -9.6875 C -2.050781 -10.101562 -1.851562 -10.484375 -1.53125 -10.828125 C -1.207031 -11.179688 -0.765625 -11.300781 -0.203125 -11.1875 C 0.015625 -11.144531 0.179688 -11.035156 0.296875 -10.859375 C 0.421875 -10.691406 0.460938 -10.507812 0.421875 -10.3125 C 0.191406 -9.03125 0.0078125 -7.59375 -0.125 -6 C -0.269531 -4.414062 -0.195312 -3 0.09375 -1.75 C 0.15625 -1.476562 0.226562 -1.34375 0.3125 -1.34375 C 0.40625 -1.34375 0.671875 -1.613281 1.109375 -2.15625 C 2.179688 -3.570312 3.207031 -5.359375 4.1875 -7.515625 C 5.175781 -9.671875 5.867188 -11.375 6.265625 -12.625 C 6.421875 -13 6.671875 -13.226562 7.015625 -13.3125 C 7.359375 -13.40625 7.65625 -13.375 7.90625 -13.21875 C 8.15625 -13.070312 8.273438 -12.835938 8.265625 -12.515625 C 8.253906 -12.253906 8.234375 -11.972656 8.203125 -11.671875 C 8.066406 -10.460938 7.988281 -9.078125 7.96875 -7.515625 C 7.957031 -5.960938 8.175781 -4.679688 8.625 -3.671875 C 8.882812 -3.109375 9.285156 -2.921875 9.828125 -3.109375 C 10.378906 -3.296875 11.296875 -3.972656 12.578125 -5.140625 C 14.023438 -6.523438 15.460938 -8.078125 16.890625 -9.796875 C 18.316406 -11.523438 19.492188 -13.09375 20.421875 -14.5 Z M 20.421875 -14.5 "></path></g></g><g transform="translate(72.704183, 55.89651)"><g><path d="M 13.359375 -13.84375 C 13.640625 -14.15625 13.960938 -14.265625 14.328125 -14.171875 C 14.703125 -14.078125 14.953125 -13.882812 15.078125 -13.59375 C 15.210938 -13.3125 15.140625 -12.972656 14.859375 -12.578125 C 14.492188 -12.117188 14.113281 -11.644531 13.71875 -11.15625 C 12.707031 -9.945312 11.460938 -8.457031 9.984375 -6.6875 C 8.503906 -4.914062 7.070312 -3.375 5.6875 -2.0625 C 4.800781 -1.1875 3.765625 -0.476562 2.578125 0.0625 C 1.398438 0.601562 0.210938 0.535156 -0.984375 -0.140625 C -1.847656 -0.734375 -2.398438 -1.578125 -2.640625 -2.671875 C -2.890625 -3.765625 -2.898438 -4.914062 -2.671875 -6.125 C -2.441406 -7.34375 -2.035156 -8.441406 -1.453125 -9.421875 C -0.378906 -11.085938 0.679688 -12.003906 1.734375 -12.171875 C 2.785156 -12.347656 3.5625 -12.101562 4.0625 -11.4375 C 4.5625 -10.769531 4.585938 -10.039062 4.140625 -9.25 C 3.867188 -8.882812 3.554688 -8.71875 3.203125 -8.75 C 2.859375 -8.78125 2.609375 -8.914062 2.453125 -9.15625 C 2.304688 -9.394531 2.304688 -9.65625 2.453125 -9.9375 C 2.410156 -10.113281 2.3125 -10.203125 2.15625 -10.203125 C 2 -10.203125 1.800781 -10.101562 1.5625 -9.90625 C 0.789062 -9.300781 0.21875 -8.488281 -0.15625 -7.46875 C -0.53125 -6.445312 -0.695312 -5.4375 -0.65625 -4.4375 C -0.625 -3.445312 -0.398438 -2.695312 0.015625 -2.1875 C 0.335938 -1.800781 0.800781 -1.628906 1.40625 -1.671875 C 2.007812 -1.710938 2.8125 -2.171875 3.8125 -3.046875 C 5.550781 -4.640625 7.363281 -6.578125 9.25 -8.859375 C 11.144531 -11.140625 12.34375 -12.578125 12.84375 -13.171875 C 13.050781 -13.460938 13.222656 -13.6875 13.359375 -13.84375 Z M 13.359375 -13.84375 "></path></g></g><g transform="translate(88.787839, 51.382119)"><g><path d="M 21.71875 -15.703125 C 21.925781 -16.046875 22.222656 -16.242188 22.609375 -16.296875 C 22.992188 -16.347656 23.289062 -16.242188 23.5 -15.984375 C 23.71875 -15.722656 23.734375 -15.367188 23.546875 -14.921875 C 22.484375 -13.066406 20.515625 -10.617188 17.640625 -7.578125 C 14.765625 -4.535156 12.695312 -2.914062 11.4375 -2.71875 C 10.1875 -2.53125 9.28125 -2.671875 8.71875 -3.140625 C 8.164062 -3.609375 7.765625 -4.144531 7.515625 -4.75 C 7.003906 -6.144531 6.695312 -7.59375 6.59375 -9.09375 C 6.539062 -9.632812 6.484375 -10.15625 6.421875 -10.65625 C 6.335938 -11.34375 6.226562 -11.800781 6.09375 -12.03125 C 5.96875 -12.257812 5.757812 -12.265625 5.46875 -12.046875 C 4.488281 -11.253906 3.457031 -9.566406 2.375 -6.984375 C 1.300781 -4.398438 0.6875 -1.769531 0.53125 0.90625 C 0.53125 1.082031 0.546875 1.390625 0.578125 1.828125 C 0.597656 2.316406 0.441406 2.671875 0.109375 2.890625 C -0.222656 3.117188 -0.566406 3.179688 -0.921875 3.078125 C -1.273438 2.972656 -1.484375 2.75 -1.546875 2.40625 C -2.085938 -3.21875 -2.128906 -8.679688 -1.671875 -13.984375 C -1.222656 -19.285156 -0.5 -23.890625 0.5 -27.796875 C 1.5 -31.710938 2.53125 -34.390625 3.59375 -35.828125 C 4.289062 -36.679688 4.90625 -37 5.4375 -36.78125 C 5.976562 -36.5625 6.328125 -36.117188 6.484375 -35.453125 C 6.734375 -33.890625 6.457031 -31.472656 5.65625 -28.203125 C 4.863281 -24.941406 3.925781 -21.679688 2.84375 -18.421875 C 1.757812 -15.171875 0.910156 -12.773438 0.296875 -11.234375 C 0.171875 -9.023438 0.113281 -7.507812 0.125 -6.6875 C 0.144531 -6.707031 0.597656 -7.648438 1.484375 -9.515625 C 2.367188 -11.378906 3.429688 -12.78125 4.671875 -13.71875 C 5.191406 -14.039062 5.738281 -14.191406 6.3125 -14.171875 C 6.882812 -14.160156 7.363281 -13.925781 7.75 -13.46875 C 8.050781 -13.0625 8.257812 -12.59375 8.375 -12.0625 C 8.488281 -11.539062 8.566406 -11.019531 8.609375 -10.5 C 8.640625 -10.394531 8.671875 -10.296875 8.703125 -10.203125 C 8.710938 -10.035156 8.726562 -9.851562 8.75 -9.65625 C 8.820312 -8.9375 8.921875 -8.195312 9.046875 -7.4375 C 9.179688 -6.6875 9.375 -6.050781 9.625 -5.53125 C 10.050781 -4.71875 10.789062 -4.550781 11.84375 -5.03125 C 12.90625 -5.519531 14.546875 -6.984375 16.765625 -9.421875 C 18.984375 -11.867188 20.632812 -13.960938 21.71875 -15.703125 Z M 4.328125 -32.671875 C 4.035156 -32.546875 3.582031 -31.34375 2.96875 -29.0625 C 2.363281 -26.789062 1.867188 -24.472656 1.484375 -22.109375 C 1.109375 -19.742188 0.921875 -18.535156 0.921875 -18.484375 C 2.296875 -23.015625 3.28125 -26.546875 3.875 -29.078125 C 4.46875 -31.609375 4.617188 -32.804688 4.328125 -32.671875 Z M 4.328125 -32.671875 "></path></g></g><g transform="translate(113.315957, 44.49752)"><g></g></g><g transform="translate(126.417934, 40.820032)"><g><path d="M 16.046875 -13.765625 C 16.359375 -14.191406 16.710938 -14.375 17.109375 -14.3125 C 17.515625 -14.257812 17.804688 -14.085938 17.984375 -13.796875 C 18.171875 -13.503906 18.164062 -13.210938 17.96875 -12.921875 C 16.851562 -11.160156 14.941406 -8.5 12.234375 -4.9375 C 9.523438 -1.375 7.3125 0.992188 5.59375 2.171875 C 4.019531 3.203125 2.644531 3.523438 1.46875 3.140625 C 0.289062 2.753906 -0.597656 1.769531 -1.203125 0.1875 C -2.234375 -2.757812 -2.632812 -6.460938 -2.40625 -10.921875 C -2.175781 -15.378906 -1.53125 -19.6875 -0.46875 -23.84375 C 0.59375 -28.007812 1.863281 -31.128906 3.34375 -33.203125 C 3.863281 -33.859375 4.46875 -34.316406 5.15625 -34.578125 C 5.851562 -34.835938 6.398438 -34.671875 6.796875 -34.078125 C 7.191406 -33.492188 7.273438 -32.425781 7.046875 -30.875 C 6.742188 -28.875 6.140625 -26.347656 5.234375 -23.296875 C 4.335938 -20.253906 3.375 -17.320312 2.34375 -14.5 C 1.320312 -11.675781 0.453125 -9.65625 -0.265625 -8.4375 C -0.265625 -8.457031 -0.265625 -8.457031 -0.265625 -8.4375 C -0.265625 -8.425781 -0.257812 -8.410156 -0.25 -8.390625 C -0.25 -7.117188 -0.132812 -5.570312 0.09375 -3.75 C 0.332031 -1.925781 0.785156 -0.484375 1.453125 0.578125 C 1.847656 1.109375 2.296875 1.335938 2.796875 1.265625 C 3.296875 1.191406 3.847656 0.945312 4.453125 0.53125 C 6.003906 -0.5625 8.0625 -2.8125 10.625 -6.21875 C 13.195312 -9.632812 15.003906 -12.148438 16.046875 -13.765625 Z M 4.53125 -31.109375 C 4.132812 -31.253906 3.34375 -29.3125 2.15625 -25.28125 C 0.976562 -21.25 0.257812 -17.582031 0 -14.28125 C 1.851562 -19.71875 3.171875 -23.847656 3.953125 -26.671875 C 4.734375 -29.492188 4.925781 -30.972656 4.53125 -31.109375 Z M 4.53125 -31.109375 "></path></g></g><g transform="translate(145.113279, 35.572587)"><g><path d="M 18.0625 -15.265625 C 18.414062 -15.503906 18.753906 -15.535156 19.078125 -15.359375 C 19.398438 -15.179688 19.566406 -14.910156 19.578125 -14.546875 C 19.597656 -14.191406 18.78125 -13.257812 17.125 -11.75 C 15.46875 -10.238281 13.40625 -8.984375 10.9375 -7.984375 C 8.46875 -6.992188 6.378906 -6.628906 4.671875 -6.890625 C 4.742188 -4.984375 4.347656 -3.160156 3.484375 -1.421875 C 2.617188 0.316406 1.644531 1.390625 0.5625 1.796875 C -0.851562 2.128906 -1.832031 1.488281 -2.375 -0.125 C -2.914062 -1.75 -2.894531 -3.820312 -2.3125 -6.34375 C -1.820312 -8.125 -1.148438 -9.410156 -0.296875 -10.203125 C 0.554688 -11.003906 1.046875 -11.40625 1.171875 -11.40625 C 1.304688 -11.414062 1.460938 -11.523438 1.640625 -11.734375 C 1.828125 -11.941406 2.078125 -12.054688 2.390625 -12.078125 C 2.710938 -12.097656 2.957031 -11.988281 3.125 -11.75 C 3.644531 -10.957031 4.03125 -10.128906 4.28125 -9.265625 C 5.226562 -8.742188 6.535156 -8.691406 8.203125 -9.109375 C 9.867188 -9.535156 11.539062 -10.226562 13.21875 -11.1875 C 14.894531 -12.144531 16.507812 -13.503906 18.0625 -15.265625 Z M 1.328125 -1.578125 C 1.796875 -2.410156 2.140625 -3.382812 2.359375 -4.5 C 2.585938 -5.625 2.59375 -6.742188 2.375 -7.859375 C 2.09375 -7.929688 1.84375 -8.101562 1.625 -8.375 C 1.394531 -8.613281 1.359375 -8.953125 1.515625 -9.390625 C 0.742188 -8.804688 0.15625 -7.675781 -0.25 -6 C -0.664062 -4.332031 -0.710938 -2.726562 -0.390625 -1.1875 C -0.191406 -0.457031 0.0195312 -0.140625 0.25 -0.234375 C 0.476562 -0.328125 0.835938 -0.773438 1.328125 -1.578125 Z M 1.328125 -1.578125 "></path></g></g><g transform="translate(164.875064, 30.025811)"><g><path d="M 21.640625 -17.015625 C 22.078125 -17.273438 22.425781 -17.289062 22.6875 -17.0625 C 22.957031 -16.84375 23.09375 -16.5625 23.09375 -16.21875 C 23.101562 -15.882812 22.914062 -15.5625 22.53125 -15.25 C 21.257812 -14.414062 19.625 -13.566406 17.625 -12.703125 C 15.632812 -11.847656 13.613281 -11.179688 11.5625 -10.703125 C 9.507812 -10.234375 7.925781 -10.113281 6.8125 -10.34375 C 6.550781 -9.0625 6.09375 -7.140625 5.4375 -4.578125 C 4.789062 -2.015625 4.097656 -0.00390625 3.359375 1.453125 C 2.867188 2.328125 2.289062 2.796875 1.625 2.859375 C 0.957031 2.929688 0.441406 2.484375 0.078125 1.515625 C -0.347656 0.296875 -0.691406 -1.394531 -0.953125 -3.5625 C -1.210938 -5.726562 -1.351562 -7.757812 -1.375 -9.65625 C -1.363281 -10.070312 -1.21875 -10.398438 -0.9375 -10.640625 C -0.664062 -10.878906 -0.363281 -10.976562 -0.03125 -10.9375 C 0.300781 -10.90625 0.539062 -10.738281 0.6875 -10.4375 C 0.75 -10.289062 0.8125 -10.066406 0.875 -9.765625 C 0.9375 -9.472656 0.96875 -9.175781 0.96875 -8.875 C 0.976562 -8.570312 0.925781 -8.351562 0.8125 -8.21875 C 0.882812 -7.050781 1.03125 -5.546875 1.25 -3.703125 C 1.46875 -1.859375 1.695312 -0.628906 1.9375 -0.015625 C 2.132812 -0.421875 2.5625 -1.828125 3.21875 -4.234375 C 3.875 -6.648438 4.441406 -9.113281 4.921875 -11.625 C 4.992188 -11.945312 5.175781 -12.238281 5.46875 -12.5 C 5.757812 -12.769531 6.097656 -12.832031 6.484375 -12.6875 C 7.617188 -12.257812 9.144531 -12.25 11.0625 -12.65625 C 12.976562 -13.070312 14.914062 -13.695312 16.875 -14.53125 C 18.84375 -15.363281 20.429688 -16.191406 21.640625 -17.015625 Z M 21.640625 -17.015625 "></path></g></g><g transform="translate(187.901462, 23.562718)"><g><path d="M 1.484375 -10.03125 C 1.160156 -9.800781 0.8125 -9.425781 0.4375 -8.90625 C -0.0625 -8.195312 -0.378906 -7.71875 -0.515625 -7.46875 C -0.421875 -7.507812 -0.125 -7.773438 0.375 -8.265625 C 0.957031 -8.890625 1.300781 -9.347656 1.40625 -9.640625 C 1.425781 -9.753906 1.453125 -9.882812 1.484375 -10.03125 Z M 14.9375 -14 C 15.1875 -14.382812 15.5 -14.554688 15.875 -14.515625 C 16.25 -14.484375 16.515625 -14.335938 16.671875 -14.078125 C 16.835938 -13.816406 16.84375 -13.503906 16.6875 -13.140625 C 15.75 -11.410156 14.429688 -9.503906 12.734375 -7.421875 C 11.046875 -5.335938 9.191406 -3.546875 7.171875 -2.046875 C 5.160156 -0.546875 3.191406 0.160156 1.265625 0.078125 C -0.691406 -0.179688 -1.984375 -1.179688 -2.609375 -2.921875 C -3.242188 -4.671875 -3.046875 -6.597656 -2.015625 -8.703125 C -1.585938 -9.515625 -1.046875 -10.222656 -0.390625 -10.828125 C 0.265625 -11.429688 0.945312 -11.765625 1.65625 -11.828125 C 2.375 -11.898438 2.921875 -11.53125 3.296875 -10.71875 C 3.597656 -9.84375 3.320312 -8.835938 2.46875 -7.703125 C 1.625 -6.578125 0.53125 -5.863281 -0.8125 -5.5625 C -0.914062 -4.269531 -0.59375 -3.273438 0.15625 -2.578125 C 0.914062 -1.878906 2.023438 -1.765625 3.484375 -2.234375 C 4.878906 -2.765625 6.300781 -3.691406 7.75 -5.015625 C 9.195312 -6.335938 10.535156 -7.8125 11.765625 -9.4375 C 13.003906 -11.0625 14.0625 -12.582031 14.9375 -14 Z M 14.9375 -14 "></path></g></g><g transform="translate(205.073321, 18.742887)"><g></g></g></g></svg> 